<svg xmlns="http://www.w3.org/2000/svg" viewBox="0 0 900 600"><path fill="#ffd520" d="M0 0h900v600H0z"/><path fill="#ff4e12" d="M0 600h900V0z"/><g stroke="#000"><g fill="#fff"><path d="M482 188q-8-3-8 7t8 8z"/><path d="M486 176q-6-5-10 4-3 10 6 10z"/><path d="M493 164q-6-6-10 2-5 10 3 11zm-4 57c-7 2-7 10-3 15 3 6 11 6 14 0z"/><path d="M481 203c-5-2-11 6-11 13-2 9-14 12-7 25q3-13 11-14 9 1 15-6zm19 34c-7 2-8 11-3 17 4 6 17 5 17-1zm19 55c0-6-9-8-14-7-4 1-13-1-15-5q-2 6 8 10 5 3 3 7c4 0 15 0 18-5z"/><path d="M514 255q-10-3-13 5c-4 7-16-1-19 7 5-2 10 3 13 4 7 5 20 3 22-8z"/><path d="M517 262q-9 8-9 15c1 4 6 13 12 14 4-8 6-23-3-29zm-27 31q2-3 6-2 5 1 5 6zm-36-13c-1-3 4-8 10-5q8 6 5 10z"/><path d="M469 285q0-3 12-2 10 3 9 10zm-16-5c4-3 2-9-1-10-7-4-4-12-9-14q-7-2-8-7-3 7 2 10c3 3-2 13 2 16zm-86-2c-4-5-12-4-15-1q-5 7 0 12zm19-8c-1-7-10-8-15-6q-7 5-4 14z"/><path d="M399 269c3-6-3-15-10-16q-9 0-14-7-1 7 6 11c4 3-1 10 6 14z"/><path d="M398 269c-1-4 2-10 7-9q10 1 7 10z"/><path d="M411 270q-1-9 9-9c10 0 8 6 5 11z"/><path d="M424 272q-1-9 9-8 9 3 4 11zm-97 73q-15-1-15 14c-2 14 17 15 15-14z"/><path d="M332 331c-17-6-26 20-42 15 5 9 20 0 25 1 9 2 28-2 17-16zm-11 36c-8-4-17 9-16 14 2 7 21 1 16-14zm-39 54q9 1 9 12c-1 9-17 27-32 28s-20 19-33 14c12-3 12-16 22-20-7-3-11 13-19 13-9 0-13 13-24 12-10-1-12 17-33 17-16 1-36 20-43 11 15-2 22-11 31-20 15-16 32-9 38-22q-11 7-23 6c-10 0-21 16-32 9q9 0 18-11c7-7 17-2 25-10 12-11 23-1 35-16q-5-2-17 3c-7 4-16-2-23 2 1-10 19-4 30-11 13-7 23-5 33-4-14 0-19-13-38-10-9 2-16-11-24-4 0-5 9-9 18-5 9 5 13-4 31 7 7 5 20-2 28 3q-2-5-11-5c3-7 25-6 34 1z"/><path d="M297 410c-7-5-17 2-24-1q-1 8 10 14z"/><path d="M308 395c-11-6-13 8-22 5q0 7 11 10z"/><path d="M314 382c-16-6-18 9-28 6 3 6 16 9 24 7zm23-69c-4-6-14-1-15 6s2 17 8 15z"/><path d="M348 294c-7-2-16-1-15 6-3 1-4 11 4 13z"/><path d="M353 289q-12-12-20-5c-9 7-17 3-17 10 5-4 9 0 14-1 4-2 7 6 18 3zm-18 130c1 2 8 3 12-1 4-5-1-18-8-19s-8 15-4 20z"/><path d="M327 419c10 4 15-5 9-10z"/><path d="M289 433c-2 6-12 7-23 25s-22 10-25 22c14-11 24-3 32-14 13-16 23-14 27-25 7-16 37-16 38-40-10-2-41 24-49 32zm254-244c13 5 13 21 28 27 15 5 17 18 29 15-12-3-11-16-23-19-13-4-19-25-30-28m55 93c3 5 2 14-6 17q8 3 15-6c-6 11-2 22 6 24-4-8 5-12 2-17q10 5 10 14c7-8-5-18-3-25zm-83 83c-8-7-11 1-15-2q-7-4-11 0c7 0 4 5 17 7-13 1-11 15-19 14 9 9 14-7 21-5-2 1 4 6 0 13 6 0 9-9 10-13zm-174 75c-3-3-11-4-14-2q-4 2 2 3c3 0 8 6 0 7-4 0-3 9-11 10 4 4 13 1 16-3 0 3 5 7 3 11 6 1 2-12 12-11-4 0-3 9 4 7q-5 5 3 5-5 3 0 7c4-5-1-24-15-34zm351-178a22 22 0 1 0 0-45 22 22 0 0 0 0 45z"/><path d="M579 284q12-11 24-5c8 5 31 11 43 3q15-12 22-12 6 9 14 10l12 3q8 2 16-6 13 0 18-14c8-1 9-10 3-16-4-1-1-17-18-14 7 5 2 14 8 18q-8-1-11 8 1-6-2-8c1-4-8-13-15-10 5 1 2 10 6 14q-5 0-8 4-5-7-14-8v-5q-4-6-3-14-6 7-9 14c-6-4-22 2-29 3-7 2-31-2-36-8q-10-8-26-12c-14-4-14-19-29-29 0 18 28 78 34 84zM422 426a22 22 0 1 0 0-43 22 22 0 0 0 0 43z"/><path d="M370 410c4 5 12 5 15 5 2 6 11 6 14 10 4 4 16 3 19 1q-5 0-11-5c-5-5-3-13-7-16q5-6 3-10l6-6q8-2 12-5c2 2 9-1 13 3 1-11-9-16-16-13-3-1-10 0-11 2q-6 0-12 4 5-4 3-9 5-3 6-7l12-2q-7-7-18-7-11 3-12 11c-4 3-5 12-4 15l-6 3-11-2m1-9q0-6 2-11 4-12-7-10c0 4 3 18 5 21z"/><path d="M361 353c2 2 9 3 9-3q1-11-8-7z"/><path d="M362 342c3 1 8 4 11-2q4-8-6-9z"/><path d="M367 331c1 1 7 8 12 3q8-8-2-14c-2 0-8 7-10 11z"/><path d="M377 320c1 4 6 11 14 8s5-14 1-16c-2 0-12 4-15 8z"/><path d="M392 312c-1 4 0 13 11 13 12 0 9-13 6-15q-9-1-17 2z"/><path d="M409 310c-1 3-4 21 18 16 3-1 11-17-18-16z"/><path d="M421 312c-2 2 4 20 19 17s2-20-19-17z"/><path d="M434 314c-2 5 1 20 20 20 17 0-1-19-20-20z"/><path d="M449 319c-1 3-3 18 19 20 16 1 12-22-19-20z"/><path d="M473 325c-3 5-6 17 18 18 16 1 6-17-18-18z"/><path d="M493 329c-4 5-1 14 8 16 11 2 13-8 5-13s-13-3-13-3z"/><path d="M504 331c-3 5-1 16 16 16 3 0 17-14-16-16zM371 541a25 25 0 1 0 0-50 25 25 0 0 0 0 50z"/><path d="m555 177-7 10c-8 25 14 44 27 71 11 21 9 55-7 76-5 7-4 9-11 17q-4 3-4 16c4-1 11 3 12 7q6-2 9 0 8-3 15 4 7-1 13 5 4-7 10-5c-1-6 5-10 10-8-1-8 6-14 13-11 5-5 17-5 23 2-10-3-10 8-19 7q1 9-9 12 7-4 9-2c3-2 10-1 11 0q6-2 10 5c6 3 10 12 6 19-1-7-6-7-8-9q-8 2-10-2c-3 3-12 5-16 1q-2 10-12 11c2 4-3 12-6 16q6 6 2 13c9 1 2 9 16 14-7 2-21 0-23-9q-11-1-11-15-10-8 1-18c-7 2-10-8-19-4-5 2-17-1-17-6-2 4-14 2-15-3-4 2-13-2-13-7-5 2-12-2-12-7q-6-2-4-8-6-3-2-11-3-5 1-12-4-5-2-11c-15-2-35-5-79-19-67-21-85 28-70 58 17 35-2 42 4 68q9 4 9 12 6 0 5 10 5 0 9 3c2-4 10-5 14 0q12 0 12 14 6 13-2 25v-12c0-5-8-6-7-10q-7 0-9-5-3 3-8 2 7 5 6 14 4 8-1 14-2 11-12 6 5-4 5-9-4-4-4-8c-6 1-15-5-17-7-13 0-25 11-25 25 0-5-7-10-6-14q-6-20 17-26c-1-4 5-9 3-14q-6-10-19-25c6-9 4-22 1-30-5-11-9-8-25 10-27 29-63 21-94 41-9 5-17 7-8-2s33-18 48-26c29-15 54-39 63-86 23-110 106-74 159-53 50 19 41-25 16-51-30-32-24-57-10-77 25-3 74 6 64 14z"/><path d="M645 448a28 28 0 1 0 0-55 28 28 0 0 0 0 55z"/></g><g fill="none"><path d="M540 178c-6 27-1 40 8 52 18 24 33 80 12 117"/><g stroke-linecap="round"><path d="M572 315q5-2 8-9m-6-2c1-5 8-7 8-12m-8-7c-1-4 7-9 6-14m-10-3c-1-3 6-8 4-12m-10-5c-1-3 4-6 2-10m-9-3c-1-2 2-7 1-10m-9-6q3-2 2-5m-7-7q3 0 4-4"/><path stroke-linejoin="round" d="M383 514q-12-3-17 6m5 5c1-5 9-8 12-5-5-3-8 7-3 7m43-129q-7 5 0 14m6-13q-5 6 1 11-3-6 3-7 4 1 1 6m221 6c-9-2-16 8-8 18q1-14 14-14m-3 6q-4 1-4 4 1 3 4 3t3-3m28-201q4 8 15 6m0-3q-7-1-8-8c0 3 6 4 8 2"/><path d="M385 415c-1-4 4-7 4-10q2-6 11 0m-2-34-3 2m14 16-6-1m0 7-5 2m-50 95q1 6 4 8m9-15q-3 4-2 10m26 0c-3-2-1-7-2-10 0-4 4-9 11-4m-37-5 8 1m29-10-2 5m16-5q-4 0-5 3m-27-86c3 1 10 5 10 10m18-30c-8-1-11-9-5-9m19 19q-4 5 3 9m-22 42c-1-2 1-8 6-6m6 65c0-5 6-8 9-3"/><path d="M388 498q0-9 5-8 4 0 7 5m-60 7q1-7 6-6m289-137c-2 1-4 8 4 9m-17 2 2 2m36 11c-2-2-7 5-2 10m-49 44q0-7 7-5m-17-28 8-4m-9 22q1-6 3-8m11-36q-1 7 3 11m35-11-5 4m3 9 3-3m57-137q-2 7-9 4m22-4c2 2 11 0 9-5m-20 31q-4-1-6-4m24-10h-6m-40 17q4 0 8-3m-13-26-4 1m37 7q-1 4-4 6"/><path stroke-linejoin="round" d="M672 266c4-2 9 12 19 7m0-14-2 7"/></g><path d="m499 238 4-2M333 388q8 4 6 14m216-179h9m4 3c0 3 1 11-4 13"/><path d="M566 238c4 1 12 1 15-7"/><path d="M575 237q4 7-3 13"/><path d="M577 243c4 1 15 2 14-8"/><path d="M587 243c4 4 18 10 15 0m-28 13c6 1 14-3 10-12"/><path d="M600 249c1 3 19 7 16-1"/><path d="M613 253c3 7 21 7 15-4"/><path d="M626 257c3 5 19 2 13-8"/><path d="M638 257c10 8 22-3 9-11"/><path d="M653 255c9 7 19-6 12-9m-81 6c3 1 9 0 10-5m-2 4c-1 7 12 10 15 2"/><path d="M603 257c2 5 13 7 15 0"/><path d="M616 260c2 5 11 5 14 0"/><path d="M626 263c3 6 15 6 18-3"/><path d="M642 264c4 3 14 2 13-7"/><path d="M654 263c6 6 16 0 11-9m0 16c4 0 6-8 2-9m-88 11q12-7 4-18"/><path d="M586 265c5 3 14 0 15-8"/><path d="M592 266q5 5 0 11"/><path d="M595 270c8-5 19 5 11 10"/><path d="M604 270q5-1 6-9m-2 12c4-3 28 4 13 12"/><path d="M620 263c4 2 7 8 0 11m6 5c5-5 21-2 15 5"/><path d="M637 277c3-10 20-4 15 0m-18-10q1 4-3 10"/><path d="M648 265q2 4-1 7m12-6q3 3-1 7m-137-82c1 10 4 16 16 10"/><path d="M525 202c-6 9 1 17 13 9"/><path d="M506 206c9 9 24 3 14-11m10 19c-1 9 6 11 12 7m-43-13c1 9 11 16 19 10"/><path d="M510 220c0 13 17 14 21 1"/><path d="M525 229c6 12 18 7 22 0m-34-18c2 5 7 12 17 7m-49-10c1 5 9 10 19 4"/><path d="M487 214c-6 7 5 14 17 3"/><path d="M493 223c2 11 6 19 21 6"/><path d="M507 234c5 7 13 11 21 0m6 2q-1 12 7 12 8-1 13-9m-14 9c0 9 7 16 21 7"/><path d="M546 259c-3 7 5 18 20 12m-52-31c-1 9 7 15 20 4"/><path d="M520 250c1 7 9 16 21 3"/><path d="M526 259c-1 13 11 16 20 7m-37-16q5 0 6-4m-1 13q5 0 8-4"/><path d="M520 274c3 2 11 1 12-3m-2 3c5 11 17 10 23-2"/><path d="M550 276q4 11 19 9"/><path d="M555 283c-5 9 2 20 14 9"/><path d="M558 297c0 5 5 12 12 13m-36-30c-2 13 8 19 20 12"/><path d="M521 286q5 3 13 1m7 7c-3 11 8 19 18 7"/><path d="M525 288c0 5 6 11 15 10m27 11q-11 8 1 17"/><path d="M551 307q0 9 11 11"/><path d="M541 303c-9 9 0 19 12 11"/><path d="M548 317c-3 10 9 16 16 5m-36-27q-4 16 9 16"/><path d="M516 293q1 9 11 7"/><path d="M519 299c-4 9 3 13 11 10m27 19q-4 8 7 11"/><path d="M557 335q-13 9-3 20"/><path d="M549 325c-5 4-4 12 2 15m-44-44c-5 5 0 20 12 12"/><path d="M539 314c-8 7-4 18 8 15"/><path d="M526 310q-5 16 9 15m-36-30q-8 9-2 15c3 4 9 2 10-2"/><path d="M485 291c-7 9 0 21 11 17m29 11q-13 6-9 16c3 3 15 4 18-10"/><path d="M511 310q-7 10 5 15"/><path d="M511 322q-8 3-7 11"/><path d="M500 312q-2 11 5 15"/><path d="M500 321q-11 0-8 10"/><path d="M492 323q-10-5-5-15"/><path d="M486 317q-11 1-11 10m1-40c-6 2-8 10-6 14s9 5 13 2"/><path d="M460 281c-5 6 1 17 10 14"/><path d="M447 277c-5 6 0 18 13 14m0 32c-1-8 7-14 18-3"/><path d="M473 304q-5 4-4 10m-36-41c-5 9 2 17 13 14m17 8q-9 12 1 20"/><path d="M458 304c-11 0-12 13-2 18"/><path d="M450 291c-5 3-6 12 2 15m-3 5c-4-3-10 0-10 6"/><path d="M442 311c-4-11-17-9-16 2"/><path d="M446 298q-6 1-11 6"/><path d="M436 286c-5 6-1 13 3 15m-18-31q-2 10 10 10"/><path d="M424 279q-4 12 10 12"/><path d="M426 289q-6 10 3 16"/><path d="M423 297c-9-1-10 10-7 15m0-43q-10 6-6 14 6 6 13 1"/><path d="M412 285q-4 11 5 15m-23-31c-4 3-1 11 8 11 7 1 11-6 8-11"/><path d="M400 280c-2 7-1 14 10 13m5 10c-7-3-16 0-12 8"/><path d="M402 291q-4 7 1 13"/><path d="M402 302q-9 1-7 10"/><path d="M395 306c-6-2-13 3-9 9"/><path d="M385 309c-5-1-11 4-6 10"/><path d="M377 314c-4 2-10 7-5 11m28-36q-9 6-4 16"/><path d="M393 276c-10 4-9 16 1 20"/><path d="M390 294q-9 6-3 14m-7-37c-4 1-4 13 6 13"/><path d="M369 275c-8 5 2 18 14 9"/><path d="M376 287q-3 9 9 12"/><path d="M377 294c-6 2-8 15 3 16m-23-27c-8 7 7 13 12 3"/><path d="M346 295c-4 4 10 17 16-4m1 0q1 8 9 8m0 5c-9 1-12 13-2 16"/><path d="M355 302q0 8 9 7m5 10c-8 2-10 13-2 13"/><path d="M363 342c-7-2-7-10-1-14"/><path d="M357 335c-6 3-4 12 0 14q5 1 6-3"/><path d="M362 358c1 4-15 2-7-11"/><path d="M355 359c-5 8 4 15 9 8"/><path d="M356 369c-2 6 6 11 11 6m-28-68c-3 6 11 8 12-4"/><path d="M335 316c-3 11 19 9 13-6"/><path d="M348 318c4 1 13 1 15-8m-7 8 6 8m-16-5q0 10 12 11"/><path d="M347 327c-4 5-5 14 6 15"/><path d="M330 329c-2 5 9 10 15 2"/><path d="M327 341c-1 4 8 9 14-7"/><path d="M337 342c2 4 9 8 14 0"/><path d="M343 346q0 10 10 10"/><path d="M331 345c-1 8 8 13 14 9"/><path d="M325 349c-2 10 11 14 16 6"/><path d="M337 358c1 6 10 11 17 6m-33-1c0 3 10 5 12-4"/><path d="M328 365c2 7 11 9 16 0"/><path d="M341 369c1 6 9 9 16 5m3 2c-2 9 6 15 12 11"/><path d="M346 375c-3 9 9 14 15 9"/><path d="M333 370q0 15 13 10m-28-9c-2 6 10 10 15 6"/><path d="M311 386c3 4 13 0 14-8m-2 6c3 5 13 7 16-3"/><path d="M336 386c0 7 12 12 16 0m15 2c-1 3 1 9 7 10"/><path d="M357 386c-1 4 4 9 10 7m2 2c-2 4-1 10 5 10"/><path d="M369 403c-4 3-2 9 4 10"/><path d="M367 408c-6 4-4 13 4 13m-22-30c0 9 11 10 13 2"/><path d="M358 398q-2 11 9 9m-8 54c1 2 7-2 6-5s-8-2-8 2m6-4c1-7-7-8-9-2"/><path d="M357 449c2-4-5-9-8-4"/><path d="M351 443c2-5-6-7-6-3"/><path d="M343 434c1-3 10-1 6 4m7 7c3-4-3-10-6-8m30 17q-6 1-4 8c2 5 8 5 9 2"/><path d="M376 457c-3-1-9 2-6 7q5 6 8 1m-18 1c2 2 8 1 10-2"/><path d="M365 458q3-1 5 1m-6-41c-4 3-1 12 6 10"/><path d="M363 426c-4 2 0 11 7 8"/><path d="M364 434c-3 3 0 10 7 8"/><path d="M363 438q-3-2-7 2m3-35c-4 3-2 10 5 11"/><path d="M358 412c-5 3-5 13 5 13"/><path d="M357 423c-3 3-1 11 6 10"/><path d="M360 433q-2 2-1 5m-3-8q-4 1-7 4m-4-9c1-3 9-3 9 5m1-9-4 3m1-27c-4 4-5 13 5 15m-12 6c0-3 7-5 9-1"/><path d="M340 403q3 4 9 3m-35-18q1 8 9 8 8-3 5-8m-4 8c-4 4 1 11 5 9"/><path d="M328 393c2-1 9-2 11 1m-33 0c-2 3 8 5 11 0m-3 3c0 3 1 9 9 6"/><path d="M325 408c1-2-5-7-10-2-4 5 1 11 4 9m-16-17c-2 4 7 11 13 4"/><path d="M297 405c-3 3 1 10 6 8s5-8 3-9"/><path d="M291 411c-3 3 0 9 3 9q6 0 6-7m6-2q2 6 9 3m0-7-1-3"/><path d="M285 416c-3 3 3 10 8 3m16-4c-2 2 1 7 4 5"/><path d="M298 418c0 4 7 6 12 1"/><path d="M302 422q-1 4 3 5m61 15c-3 5 5 10 11 4"/><path d="M372 449q-2 5 2 8m-10-2q2-5 7-4m-11-3q1-4 5-4m184-96c-11 0-6 18 4 15"/><path d="M546 361c-3 4 2 10 7 6"/><path d="M551 368c-3 6 9 14 14 6"/><path d="M561 377c0 5 16 9 13-2"/><path d="M573 381c4 6 17 7 16-3"/><path d="M586 385c3 4 16 7 16-2m-71-51q4 8 16 4m-20-1c4 3-2 16-9 11"/><path d="M527 344q9 3 13-7"/><path d="M537 343q1 5 12 5m-25-2c7 6-3 17-7 12"/><path d="M527 351c3 2 11 1 11-5"/><path d="M535 351q2 5 8 5m-18 0c3 4 11 6 15 0"/><path d="M536 359q1 8 10 7m-27 3c4 2 8-6 5-11"/><path d="M523 377c5 1 6-7 1-11"/><path d="M535 384c4-1 3-10-7-11"/><path d="M548 391c4-1 0-11-11-11"/><path d="M563 394c3-4-6-11-14-7"/><path d="M570 400c5 2 9-12-7-9"/><path d="M580 400c4-1 7-9-6-6"/><path d="M589 401c4 2 6-9-6-6m-59-29c5 3 13-1 12-7"/><path d="M534 365c2 2 1 8-2 9m3-3q5 3 10-5"/><path d="M540 371q2 5 0 9"/><path d="M541 375q6 2 10-4"/><path d="M548 374c3 2 5 9 1 12"/><path d="M551 383q6 1 11-4"/><path d="M560 381c2 1 6 5 4 9m1-1q6 0 9-6"/><path d="M573 385q4 3 4 8m0-2q5 0 7-5"/><path d="M583 388q4 2 5 6m0-2q3 0 5-4m6 0c3 3-1 13-7 11m-55-206c-6 3-23 2-14-12"/><path d="M539 183c-12 5-26-4-11-14"/><path d="M524 166c-10 0-17 16-3 21m-35-14c-3 5 6 10 12 5 5-4 5-14 2-18"/><path d="M481 185c-4 10 20 11 16-6"/><path d="M479 200c1 8 23 6 16-10m3-5c1 2 6 7 14 6m-11-17q2 4 12 3M282 419c-6 3 3 10 6 3"/><path d="M277 422c-5 4 3 10 6 3"/><path d="M273 425c-6 3 3 10 6 3"/><path d="M268 427c-5 3 1 10 6 4"/><path d="M263 430c-6 3 1 10 6 4m21-12c0 4 7 5 10-1"/><path d="M295 425c-3 3 2 7 4 6"/><path d="M284 425c0 3 7 5 10 2m-6 2q-1 5 5 5"/><path d="M280 428q1 6 8 4"/><path d="M282 432q-2 3 2 6"/><path d="M274 431c-1 3 3 7 8 4"/><path d="M275 434q-5 4 1 6"/><path d="M269 434q-1 4 4 4m-18-4c-3 1 4 8 8 2"/><path d="M248 437c-3 1 5 9 9 1m12-2q-4 3-2 6m-6-4q1 3 5 3m-7-3q-3 4 2 6"/><path d="M250 441q-2 4 3 4m2-4 3 2"/><path d="M243 440c-3 1-3 8 6 4"/><path d="M236 442c-4 2-2 8 6 3m1 0q-3 3 2 3"/><path d="M236 447q-3 3 3 3m-12-3c-2 2 4 4 8 0"/><path d="M229 449c-1 1-1 5 2 4"/><path d="M221 451q-3 3 8 0m-5 2q-4 4 1 3"/><path d="M217 454q-3 4 5 2"/><path d="M217 456c-4 2-2 6 0 4m142 9q0 4 6 3 5-1 3-6"/><path d="M368 470q6 2 8-4"/></g><g fill="#fff"><path d="M546 129c-13-7-40-19-47-9 7-3 27 0 44 16z"/><path d="M554 128c-15-17-24-13-35-19-10-6-26-7-29 2 15-7 28 4 37 5 11 2 18 11 21 15zm56-2c-8-18-24-13-32-21-10-11-37-21-48-13 24-1 35 17 48 23 9 4 19 14 32 11z"/><path d="M581 124c-13-16-34-31-43-25 12 0 16 9 25 14 9 6 5 14 18 11zm-63 29c-14-5-41-8-53 8 21 4 52 2 53-8z"/><path d="M516 159c-14-6-25 3-38 1-25-2-43-1-45 11 14-12 38-2 48-4 9-3 45-1 56 4q-9-9-21-12zm43-37c-3-10-3-22 13-21-4-5-19-7-21 11-18-13-37-15-41-4q14-12 40 17z"/><path d="M535 137c-10-7-24-17 0-21-10-6-25-3-23 15-27-11-47-7-51 4-4 12 12 18 15 11-3 1-13-2-8-9 6-7 34-2 60 12 8 4 33 3 7-12z"/><path d="M528 155c-8-16-33-2-38-17-7 22 36 10 38 17zm159 17c5 2 9-2 1-5 6 3 10-1 2-5 5 3 10-1 2-4-2 2-5 10-5 14zm2-31c12-12-1-16 14-29 11-10 2-17 13-25 3-2 11-7 12-13 4 12-15 14-13 32 0 12-8 11-11 31 0 4-3 14-15 4z"/><path d="M695 147c6-14 13-14 17-19 7-10 21 2 33-8-2 13-18 9-25 17q-9 13-25 10z"/><path d="M696 151c11-9 20-3 28-7 19-12 27 2 45-4-5 12-31 2-42 10-12 9-51 17-31 1zm-33 65q-1-10-11-13c-7-1-10-8-15-8s-9-11-16-11c-7 1-10 10 7 18 16 8 35 18 35 14zm-21 4c-7 0-8 11-14 11 9 5 16-2 21-9z"/><path d="M648 221c-6 5-8 16 1 19-5-7 10-10 5-17z"/><path d="M654 222c-5 9 8 10 5 17 7-2 8-15 1-18z"/><path d="M607 202q18-1 29 15c5 7 20 9 25 4s2-16-11-12c-3-6-12-4-17-8-4-5-22-18-26 1z"/><path stroke-linecap="round" d="M650 209c-3 0-4 6-2 8m9-5v5m-32-15c6 0 7 5 14 6"/><path d="M621 187q32 8 47 16 18 9 40 3c14-3 40-7 39 10 7-8-2-18-20-19 0-9-9-16-16-11 6-1 12 10 0 15 2-9-6-16-15-13 6 2 11 11-1 15q-13 2-28-6c-8-5-56-24-46-10z"/><path d="M673 179c-6 3-2 10-12 14q-16 6-15 20c7-15 19-14 23-20s11-14 4-14z"/><path d="M675 180c0 12-9 7-6 24q3 9 0 22c10-8 4-24 8-30q4-4 6-11c-2 7-2 19 5 23-6-13 14-23 1-38-2 4-8 10-14 10zm-33-12q3 6 2 12 6-4 9-10c7 1 10 9 3 13q8 1 14-5c-4-5-18-12-28-10z"/><path d="m542 145-6-2c-10-2-5-11 4-11 17-19 27-4 49-11q12-3 17 1 15-10 29 3 1-3 4-3c7-3 14 4 16 12q9-1 17 6 9-4 12 0c5-2 12-4 16 5 3 8-9 6-11 24-1 11-13 16-23 9-16-11-32-12-40 4-7 16-13 26-32 21q-12-3-21 8c-6 7-14 0-24 1 13-2 8-5 19-6 10-1 7-10 14-11-26 6-25-3-45 3 9-11 23-5 30-12-19 0-27-12-35-7-14 8-8 31-42 29q-24-3-38 11c18-36 41-16 53-27q11-10 15-19l5-4c-28-9-11-23 17-24z"/><path stroke-linecap="round" d="M684 140v4c0 7-10 7-11 18q1 8-5 7c-3 0-7-6-3-13"/><path d="M547 135q-4-3-7-3m66-10c8 3 12 12 25 13 12 0 19 17 39 6l2-1"/><path d="M635 125q-2 4-2 10m-37 26c-15 0-19 8-19 15 0 8 7 17 20 17 12 0 19-8 19-16s-8-16-20-16z"/><path d="M599 193c-1-4-8-4-8-7q3-3 4-9c0-4 7-5 9-1 3 3 9 10 11 7"/><path d="M604 176c-3 3-5 11 0 16m5-11v9"/><path fill="none" d="M669 169c12 1 14-12 5-12m-19-23c-4-5-14-7-14 4"/><path d="M640 151c-4-10-14-11-20-6-4 4-4 15 5 17q7-8 15-11z"/><path d="M636 145c-6-5-15 4-7 13m-104 11q6-1 19 5c5 3 21 8 32 3-11 4-19-12-27-10-8 1-23 4-29-1 15 1 23-11 41-1q7 5 16 4c-14-17-33-6-35-20 9 10 30-2 40 16m-37-13-3-7"/></g><path stroke="none" d="M655 134c-4-3-11 0-9 7q2-5 9-7m-22 21 7-4q-2-5-5-6c-2-2-7 5-2 10"/><g fill="none" stroke-linecap="round"><path d="M623 142q-9-6-12 0-8-1-8 9"/><path d="M612 153c-7-5-17-3-16 8m-4 6q5-6 12 0m39-11q-2 3 0 9-4-6-16 6m32-15q-13 3-2 9m-58-30c-7-1-12 3-2 7m16-11q-15-3-10 2m-19 38c-1 3 1 8 7 3m-5 7-1 3m-22-50c-7-2-8-7-1-7m-2 20c-6-2-6-9-1-8m14 5c-8-2-8-8-2-7m3-10c-4 0-11 4 0 7m12 2q-14 0-4 6m11-15q-11 0-5 5m-19 23c-2-2-3-9 6-7m13 5c-6-2-12 4-6 7m14-14q-12-1-9 3"/></g><path fill="#fff" d="M654 134q-5 1-8 7"/></g></svg>