<svg xmlns="http://www.w3.org/2000/svg" xmlns:xlink="http://www.w3.org/1999/xlink" viewBox="0 0 960 600"><defs><radialGradient id="a"><stop offset="0" stop-color="#f9f0aa"/><stop offset="1" stop-color="#b07e09"/></radialGradient><radialGradient xlink:href="#a" id="d" cx="447" cy="308" r="17" gradientUnits="userSpaceOnUse"/><radialGradient xlink:href="#a" id="e" cx="452" cy="313" r="11" gradientUnits="userSpaceOnUse"/><radialGradient xlink:href="#a" id="f" cx="454" cy="309" r="10" gradientUnits="userSpaceOnUse"/><radialGradient xlink:href="#a" id="g" cx="458" cy="307" r="17" gradientUnits="userSpaceOnUse"/><radialGradient xlink:href="#a" id="j" cx="446" cy="252" r="13" gradientUnits="userSpaceOnUse"/><radialGradient id="m" cx="478" cy="215" r="0" gradientUnits="userSpaceOnUse"><stop offset="0" stop-color="#a50a0a"/><stop offset="1" stop-color="#4c0505"/></radialGradient><linearGradient id="h" x1="474" x2="472" y1="259" y2="232" gradientUnits="userSpaceOnUse"><stop offset="0" stop-color="#b07e09" stop-opacity="0"/><stop offset="1" stop-color="#b07e09"/></linearGradient><linearGradient id="i" x1="483" x2="485" y1="297" y2="327" gradientUnits="userSpaceOnUse"><stop offset="0" stop-color="#b07e09" stop-opacity="0"/><stop offset="1" stop-color="#b07e09"/></linearGradient><linearGradient id="k" x1="452" x2="455" y1="250" y2="241" gradientUnits="userSpaceOnUse"><stop offset="0" stop-color="#f9f0aa"/><stop offset="1" stop-color="#b07e09"/></linearGradient><linearGradient id="l" x1="473" x2="476" y1="237" y2="270" gradientUnits="userSpaceOnUse"><stop offset="0" stop-color="#f9f0aa"/><stop offset="1" stop-color="#b07e09"/></linearGradient></defs><path fill="#4997d0" d="M0 0h960v600H0z"/><path fill="#fff" d="M320 0h320v600H320z"/><g stroke-width="0"><path fill="none" d="m452 377 6-1m2-4 3 4m-8-5 3 4m-49-136-5 3m0 0v-4m-2 5v2m2 1h-2m-4-1 1 8m-2-1 2 2m-5 6 1 4m4-4-2 1m2 5-4 2m-3 40 4 5m0 1-3-1m5 9 1 1m0 3 4 4m-2 3 3 1m-1 2 2 1m2-6-1 4m1 2 1-2m4 6v4m39 28-1 1m-2-4-1-2"/><path fill="#406325" d="m486 385-3-3q-12-6-24-7l-6-3-16-6-2-1-7-5q-15-11-22-26c-6-13-13-26-12-40q0-14 2-27 4-20 15-37l-1 1q-11 17-16 37l-1 27c-1 14 6 27 12 40q8 15 21 25l8 5 2 2 15 6 6 3q13 1 24 7l4 3z"/><g fill="#67923d"><path d="M406 332c-2-7-1-22 0-24 7 13 5 24 0 24m46 45c-7 0-20 9-22 11 15 1 24-7 22-11m8-4c-7-6-15-24-14-27 15 11 19 25 14 27"/><path d="M455 373c-7-4-16-20-16-23 15 8 20 20 16 23m-16-7c1-8-6-24-8-26-2 16 3 28 8 26m-27-24c-3-6-1-20 0-21 6 11 3 21 0 21m-14-77c4-7 18-16 21-16-7 15-18 20-21 16"/><path d="M399 259c2-7 15-19 17-20-4 16-14 23-17 20m28 99c-5-6-8-23-8-26 12 13 12 25 8 26m-29-36c-7 1-21-5-23-6 15-3 24 2 23 6m-2-10c1-5 8-15 10-16-1 12-7 18-10 16m51 59c-8 0-25 11-26 13 18 1 29-8 26-13"/></g><g fill="#406325"><path d="M406 331c5 1 7-10 0-23zm12 20c-5-5-20-11-22-11 9 12 20 15 22 11m-25-53c-1-8-12-22-15-23 2 17 11 26 15 23m9 35c-5-4-19-6-21-5 10 8 20 9 21 5m-10-25c-3-6-15-14-17-14 6 13 15 17 17 14m3-48c1-7-6-23-7-25-3 16 3 27 7 25m4-15c3-6 1-22 0-24-7 14-4 25 0 24"/><path d="M404 238c4-5 5-18 4-20q-10 17-4 20m6-6c5-4 10-16 9-18-9 7-12 16-9 18m-16 43c0 1-1-8-10-18 1 14 7 20 10 18m33 86c-6-5-24-7-26-6 13 10 25 10 26 6m12 5c-5 2-10-10-8-26q6 23 8 26m13 11c2 4-6 12-22 11 12-5 22-9 22-11m8-4c4-3 1-16-14-27 8 13 14 25 14 27"/><path d="M455 373c4-3-1-15-16-23q15 18 16 23m-43-31c4 0 6-10 0-21zm-14-77c3 4 14-1 21-16q-16 15-21 16"/><path d="M399 259c4 3 13-4 17-20q-14 19-17 20m28 99c4-1 4-13-8-26zm-29-36c1-4-9-9-23-6q20 4 23 6m-2-10c3 2 9-4 10-16zm51 59c3 5-8 14-26 14q23-10 26-14"/><path d="M399 326c-2-6-14-15-17-16 5 14 15 20 17 16"/></g><g fill="#67923d"><path d="M392 274c4-5 18-9 20-9-8 10-18 13-20 9m25 78c-1 3-12 0-21-12zm-24-54c-4 3-13-6-15-23q11 21 15 23m9 35c-1 4-11 3-21-5zm-10-25c-2 3-11-1-17-14q14 13 17 14m3-48c-5 2-10-9-7-25q4 22 7 25m4-15c-4 1-7-10 0-24zm5-7q-5-3 4-20zm6-6c-3-2 0-11 9-18z"/><path d="M394 275q-7 3-10-18zm33 86c-1 4-13 4-26-6q21 7 26 6m-8-10c-4-4-8-17-7-19 9 9 10 18 7 19m-17-25c-4-6-4-21-3-23 8 12 7 23 3 23m-3 0c-3 4-12-2-17-16q14 16 17 16"/></g><g fill="#406325"><path d="M392 274c2 4 12 2 20-9q-17 11-20 9m10 52c4 0 5-11-3-23q4 20 3 23m17 25c3-1 2-10-7-19z"/><path d="M394 292c2-9-1-23-4-26-5 16 0 27 4 26"/></g><path fill="#67923d" d="M394 294c-6 1-9-12-4-27z"/><path fill="#67923d" d="M393 294c-1-8 7-23 9-25 2 16-5 26-9 25"/><path fill="#406325" d="M393 294c4 1 11-9 9-25z"/><path fill="#67923d" d="M394 303c0-7 9-22 11-23 1 16-7 25-11 23"/><path fill="#406325" d="M394 303c4 3 12-7 11-23q-8 21-11 23"/><g fill="#ba1f3e"><circle cx="397" cy="251" r="1"/><circle cx="405" cy="245" r="1"/><circle cx="402" cy="242" r="1"/><circle cx="393" cy="313" r="1"/><circle cx="395" cy="297" r="1"/><circle cx="408" cy="334" r="1"/><circle cx="402" cy="336" r="1"/><circle cx="447" cy="368" r="1"/><circle cx="450" cy="375" r="1"/></g></g><g stroke-width="0"><path fill="none" d="m561 259 2 2m-6-19-1-5m3 3-1 5m-4 0 5 4m4 1v6m0 1 1-2m-2 12 4 4m0-1 2-3m2 31-3 4m-4 0 3 4m2 5-4 5m0 4-4 5m9-20h-2m-2-7 1 1m-9 37h-2m-2-1 1 1m-8 5v6m4-9 1 2m4 0h-2m-31 26-1 1m12-4h-4m-6 6-3-1m-14 3-3 4m-1-5-4 6m2 3-5-2m17-1-7-1m10 0-10-1m8-2-1-1m-6 6-2-2m58-49-4 4m2-80h-2"/><path fill="#406325" d="m474 385 4-3q10-6 24-7l6-3 15-6 2-1 8-5q13-11 22-26c5-13 12-26 11-40q1-14-1-27-5-20-16-37l2 1q11 17 15 37 2 12 2 27-1 21-12 40-9 14-22 25l-7 5-2 2-16 6-6 3q-13 1-24 7l-3 3z"/><g fill="#406325"><path d="M554 335c2-8 0-25-2-27-6 15-3 27 2 27"/><path d="M547 342c2-6 0-20-1-21-5 11-3 21 1 21m16-75c-3-6-17-14-19-14 6 13 17 18 19 14"/><path d="M562 259c-2-6-13-16-15-16 3 13 12 19 15 16m5 15c-4-4-16-7-18-7 7 9 16 11 18 7m-3 47c6 1 19-4 20-6-13-3-22 2-20 6m0-6c0-6-7-17-8-18q0 19 8 18"/><path d="M564 301c0-7-9-22-11-23 0 16 7 26 11 23m-53 76c5 5 20 11 22 11-9-13-20-15-22-11"/></g><g fill="#67923d"><path d="M554 334c-5 1-9-11-2-26q0 23 2 26m-54 44c7 0 21 9 22 11-15 1-24-7-22-11m0-8c2-8 15-21 18-22-4 17-14 26-18 22m21-4c-1-8 6-24 8-26 3 16-3 28-8 26m22-15c4-5 19-11 22-11-9 12-20 15-22 11m26-53c1-6 9-18 11-19-1 14-8 21-11 19"/><path d="M557 336c6-4 22-6 24-5-11 9-23 10-24 5m10-24c3-6 16-15 18-15-6 13-15 18-18 15m-1-46c0-8 8-23 10-24 1 16-6 26-10 24m-7-26c-2-5-1-18 0-20q6 18 0 20m-4-2c-6-5-11-20-11-22 12 9 15 20 11 22"/><path d="M566 273s3-8 14-16q-8 22-14 16m-34 89c7-5 27-7 29-6-14 11-28 12-29 6m15-20c-4 0-6-10-1-21q-1 18 1 21m16-74c-2 3-13-2-19-15zm-1-9c-3 3-12-3-15-16q11 15 15 16m5 16q-5 5-17-8 14 9 17 8m-3 46c-1-4 7-9 20-6q-17 4-20 6m-1-6c-3 2-8-6-7-18z"/><path d="M564 302c-4 2-11-8-11-24q8 21 11 24m-53 75c2-4 13-2 22 11q-18-11-22-11"/></g><g fill="#406325"><path d="M522 366c4 1 10-10 7-26z"/><path d="M532 361c4-7 5-25 4-27-10 13-9 26-4 27m-32 17c-2 4 7 12 22 11q-19-7-22-11m0-8c4 3 14-5 18-22-8 12-16 22-18 22m43-19c2 4 13 1 22-11-11 7-21 12-22 11m26-53c3 2 10-5 11-19q-8 18-11 19m-12 38c1 5 13 4 24-5-12 4-23 6-24 5m10-24c3 3 12-2 18-15q-14 14-18 15m-1-46c4 2 11-8 10-24q-7 21-10 24m-7-26q7-2 0-20zm-4-2c4-2 1-13-11-22 7 11 11 21 11 22m11 35q7 6 14-16-11 15-14 16m-34 89c1 6 15 5 29-6q-24 8-29 6"/><path d="M539 355c3-5 4-19 4-20q-10 17-4 20m20-29c3-6 4-21 3-23-9 12-8 23-3 23"/></g><path fill="#67923d" d="M532 361c-5-1-6-14 4-27q-5 22-4 27m35-69c-1-8 4-20 7-22 2 14-3 24-7 22m-28 63q-6-3 4-20-5 17-4 20m23-105c-2-5 1-20 2-21 5 12 2 22-2 21m-58 121c3-8 17-21 19-22-4 17-15 25-19 22m55-42c3-6 15-15 17-16-5 14-14 19-17 16m0-3c-5 0-6-11 3-23q-5 20-3 23"/><path fill="#406325" d="M567 294c5 2 9-10 7-24z"/><path fill="#406325" d="M568 294c0-8-7-23-9-25-2 16 4 26 9 25m-5-44c3 1 6-9 1-21zm-58 121c3 3 14-5 18-22zm54-42c3 3 12-2 17-16q-13 15-17 16"/><path fill="#67923d" d="M568 294c-5 1-11-9-9-25 3 13 7 24 9 25"/><g fill="#ba1f3e"><circle cx="565" cy="255" r="1"/><circle cx="568" cy="267" r="1"/><circle cx="570" cy="304" r="1"/><circle cx="565" cy="297" r="1"/><circle cx="550" cy="337" r="1"/><circle cx="556" cy="340" r="1"/><circle cx="514" cy="372" r="1"/><circle cx="507" cy="377" r="1"/><circle cx="557" cy="249" r="1"/></g></g><g id="b" fill="#8c959d" stroke="#485654" stroke-width="0"><path d="M434 336q0 3 2 2h1l-2-1v-1z"/><path stroke="none" d="M437 338q-1 3-3 1l-1-2-1 1 2 2q2 1 4-1t1-4l-2-2-1 1 2 1q1 2-1 3"/><path fill="#485654" stroke="none" d="m437 338-1 1-1 1-1-1h-1v-2l-1 2v-1l1 2h3zl1-2v-2l-1-1-1-1-1 2v-1h1v1l1 1v1zm0 0 1-1v-1l-1-1h-1v-1l1-1 2 2v3zl-1 1-2 1-2-1-1-1v-1l1-1v2h1l1 1 1-1z"/><path fill="#6c301e" stroke="#351710" stroke-linejoin="round" d="m515 249-40 40-41 39-5 5-7 9h-1l-6 5-12 13v2l6 9q3 2 4 1c3-6 11-14 14-21 1-4 3-11 5-12l12-13 1-1 1-1 70-74z"/><path d="m432 328-3-1h3z"/><path fill="#b2b6ba" d="m557 220-32 26h-1l-3-2v-1l2-1v-1h-2l-1 1-1 2q-28 26-55 54l-23 21-6 5-2 1-2 6-3 4 4 3 11-11 1-1-2-3-1-1 79-77h1l2 3 2 1z"/><path fill="#485654" stroke="none" d="m431 330 2-4-1-1 1 1-1 2z"/><circle cx="438" cy="328" r="1" fill="none"/><circle cx="434" cy="332" r="1" fill="none"/><path fill="#485654" stroke="none" d="m441 322-2-1z"/><path d="m502 259 4 3-3-4z"/></g><use xlink:href="#b" transform="rotate(3 9 19640)scale(-1 1)"/><g stroke-width="0"><path fill="#67923d" d="M434 365c-8-3-27 0-29 1 16 8 29 5 29-1m89 4c8-4 27-1 29 1-16 8-29 4-29-1"/><path fill="#406325" d="M434 365c0 6-13 9-29 1q24 2 29-1m89 4c0 5 13 9 29 1-15 1-28 0-29-1"/></g><g id="c"><path fill="#b2b6ba" stroke="#485654" stroke-width="0" d="M508 360c-20-30-52-55-76-68 4 0 12 4 15 6q35 23 66 60l-4 3z"/><path fill="#8c959d" d="m511 360-2 1c-23-29-55-58-77-69 31 14 56 42 78 68"/><path fill="#485654" d="m511 360-2 1-17-20-18-18-20-17-10-7-12-7 23 13 20 17 18 18zl-18-20-38-35-23-13 22 14 20 17 18 18 17 20z"/><g fill="#fab81c" stroke="#6c301e" stroke-width="0"><path d="m518 355-6 2-3 4-1-1h-1l-1 1q-1 1 1 3l2 1 2-1 11 10q5 0 3-3h-1v-1q3-3 1-10-4-6-7-5zm6 5 1 2q2 5-3 7l-1-1-2-2q1-2-1-1l-1-2-2-2v-1l3-3q5-1 6 3z"/><path d="m525 363-1-1 2-1v2z"/><path d="m525 362-1-1 1-1 1 2z"/><path d="m524 361-1-1 2-1v1zm-1-1v-1l1-1v1zm-1-1v-2q0 1 0 0h1v1z"/></g><path fill="#fab81c" d="M511 364q1-3 4-4m-3 4q2 0 3-3m-2 4q2 1 4-2m-3 4q3 0 4-3m-2 4 3-2m-2 4 4-2m-2 3 3-2m-1 4 3-2"/><path fill="#6c301e" d="m511 364 3-4h1-1l-1 1zm1 0 2-2v-1 1zm1 1h1l2-2-2 2zm1 2 2-1 1-1 1-1-2 2zm2 1h2l1-2v1zm1 2h1l2-1 1-1-1 1h-1zm2 1h2l1-1v-1 1zm2 2 1-1 1-1z"/></g><use xlink:href="#c" transform="rotate(3 0 18712)scale(-1 1)"/><g stroke-width="0"><path fill="#406325" d="M409 240c7-2 19-15 20-18-16 4-23 14-20 18m146 5c-2-7-13-19-16-20 3 15 12 23 16 20"/><path fill="#67923d" d="M409 240c-3-4 4-14 20-18q-18 14-20 18m146 5c-4 3-13-5-16-20z"/></g><g stroke-width="0"><path fill="url(#d)" d="M452 318s-6 1-8-8 6-10 6-10l13-1 2 18z"/><path fill="url(#e)" d="M453 315s-4 1-5-5q1-6 2-5l10 1v8z"/><path fill="url(#f)" d="m450 305 9-1 2 6h-7s-1-5-4-5"/><path fill="url(#g)" d="M449 300s8-1 9 7q0 5-5 8l14-1-1-15h-5z"/><path fill="#f9f0aa" d="m452 318 57-3c16-9 0-43-13-62 2-4-30-14-44-13l-5 1c-8 0-8 10-5 17 3 6 31 55 11 60z"/><path fill="url(#h)" d="m508 273-12-20c2-4-30-14-44-13l-5 1c-8 0-8 10-5 17l8 15"/><path fill="url(#i)" d="M455 285c6 15 9 30-2 33h-1l57-3q12-9 4-30"/><path fill="url(#j)" d="M447 243q-4 2-4 6c0 6 4 7 4 7l6-1 3-12z"/><path fill="url(#k)" d="m447 244 9-1 1 9h-8s3-7-2-8"/><path fill="url(#l)" d="M496 253c7-1 7-10 2-13-15-1-36-1-50 1 1 0 6 0 6 6l-3 7-4 2 4-1h3c21-3 42-2 42-2"/><path fill="#b07e09" d="M458 267h2q0 1 0 0l-1 1 2 3 1 1h1v-1l1 1h-1l-3 1h-1l1-1v-1zm5 0h-1 2q1 0 0 0v1l2 3v1h1-3 1l-1-1zm5 1-1-1h-1zm0 1 1 1h1zm-2-2h-1 3l2 1-1 1h1l1 1v2h-4l1-1zm8-2h1-3l1 2 1-1q-1 0 0 0v1l1 1-1-1h-1l1 2h2v-1 2h-4l1-1-1-1-1-3h-1v-1h4m2 1v-1zh2l2 2-1 1 2 1v1h1-2l-1-2h-1l1 2q1 1 0 0l-1 1-1-1q1 0 0 0l-1-3zm2 1q0 1 0 0l-1-2-1 1zm7 2h1-3 1l-1-2-1-2v-1l-1 1h-1v-1h5l1 1h-1l-1-1h-1l1 1zm3-1v1l1 1h-2l1-1zv-4 1l4 4 1 1h-2q-1 0 0 0v-1l-1-1zm2 0-2-1v2zm3-2-1-1-1-1h2l2 1 3 3-1 1-2 1h-1v-1zm2 2v1h1l1-1-1-2-2-1h-1 1zm-21 13 1 1zh-2q0-1 0 0l1-1-1-1-1-2v-1h-1 1v-1l1 1zm0-5h3v1h-2v1h1l3 2v1l-2 1-1-1v-1 1h2l-1-2h-2v-1zm7 1h4l3 3-1 2h-4v-1zm2 3h1v-3l-2-2h-1v1zm7-5v1zh-1v1l1 1 1-1v2l-1-1v2h2v-1l1 1v1h-4v-1l-1-3-1-1 1-1zm-28 15h1l3 2v1l-1 1h-2v-1l-1-1h1l1 2 1-1-1-1-2-1zh1l2-1q0 1 0 0l1 1v1h-1l-1-1zm7-2h1-3l1 2 1-1q-1 0 0 0l1 2-1-1h-1l1 2h1l1-1v2h-4v-2l-1-3-1-1h4m4 4h1-3q0 1 0 0zl-1-3v-1h-1 3l2 1v1l-2 1zm0-2-1-2h-1v1zm6 2h-3l1-1v-1l-1-3h-2v1l-1-1h1l4-1 1 1v1h-1l-1-1v1zm2-3-1-1v-1h2v3l1 2h1v1h-2l-1-1h1v-1zm6-2q0 1 0 0h-1v2l1-1h1v2-1h-1q-1 0 0 0v2h2v-1h1v1h-1l-3 1h-1l1-1v-1l-1-3h-1v-1h4m2 1-1-1q-1 0 0 0h1l1 1 2 3v-1l1-3h1q1 0 0 0v1l2 4h-3l1-1-1-3v4h-1zl1 2 1 1q1 1 0 0h-2l1-1zm8 1 1-1-1-1h-1zm1 1v1l1 1 1-1zm-2-2h-1 3l2 1-1 1 2 1v2h-4q-1 0 0 0v-1zm5 0v-1h-1l1-1h2l2 2-1 1 1 1 1 1q1 0 0 0l-1 1v-1l-1-1-1-1v2h1v1h-2v-1zm1 1h1l1-1-1-1h-1zm7-3v1l-1-1h-1q-1 0 0 0v2h1v-1l1 2h-1v-1h-1l1 2h1l1-1v2h-4v-5h-1l-1-1h4m-32 13-1-1h-1 4l2 2v2l-2 1h-2q-1 1 0 0v-2zm1 3 1-1v-2l-1-2h-2v1zm7-5v1l-1-1h-2v1l1 1h1v-1 2l-1-1v2h2v-1l1 1v1h-4q-1 0 0 0v-1l-1-3v-1h-1 1zm7 4v1h1l-1 1h-2v-1h1v-1l-1-3h-1v-1h2zm3-3-1 1zh1zm1 3-1 1zm1 0v1h-2l-2-1 1-1-1-2 1-1 2 1v1zm3 0v-1 2h-3v-1l1-1 1-1-1-1-1-1v1h1l-1 1-1-1 1-1h1l2 1v1l-2 2zm4 0h1-4 1zv-2l-1-1h-1 1l1-1v1z"/></g><g fill="#448127" stroke-width="0"><path fill="url(#m)" d="m476 219-4 5q-1 7 8 13c4 2 13 3 16 1l-14-13z"/><path d="m504 354-2-2q-13 17-33 28 21-8 35-26m-16 36q8-17 18-32l-2-3c-7 12-16 27-16 35m42-115-4-13-12-16q-14-16-32-28h1l-1-1h1-1 1v-2h1l-1-1h1-1v-2h-1v-1l-1 1 1-1h-1v-1l-1 1v-1 1-1l-1 1v-1 1l-1-1v1-1 1-1l-1 1v-1 1-1l-1 1v-1 1-1 1h-1v1l-1-1 1 1h-1v1l-1 4h1v1l-3 8q2-3 5-4-2 4-1 7l1-1v2l1-2 1 3 2-1-1 3 2-3 1 5 1-4v5l2-2v4l2-2q1 2-1 3h4l-1 2 3-2-1 4 2-2-1 3 5-3q-1 1 1 4 0-2 2-3l3 6-1-5 2 5 1-4 2 5 1-3c20 21 24 47 2 75 8-6 10-14 14-21q-4 15-13 27 9-8 13-17-7 19-20 38l5 5 4-6c9-16 25-38 17-72"/></g><path fill="#eac102" d="m473 215-2 2h3v-2z"/><path fill="#a08307" d="m471 217 2-1z"/><circle cx="478" cy="215" r="1"/><g fill="#34541f"><path d="m488 390 3-9 5-9 7-12 2-4-2 4-3 4-4 9-4 8zm-19-10a76 76 0 0 0 26-19l7-8-6 8-8 8zm38-29 4-7 4-7 4-7 3-7-1 4-2 3-8 14zm6-25 8-14 5-15v-2l1-6v-7l-4-16 4 15v14l-1 2-5 15z"/><path d="m511 320 5-6 4-6 4-11v-1l1-1v-17l-1-8 2 8v8l-1 7v2l-1 1v1l-1 4-3 7-4 6z"/><path d="m505 349 4-5 1-2 2-3 3-5 3-6 5-11 3-12 2-12v-12l-3-12-5-11 5 11 3 12v12l-2 12-3 12-5 11-3 6-3 5-2 3-1 2z"/><path d="m508 352 13-23 5-13 3-13 1-13-1-14-4-13-7-11 7 11 4 13 1 14-1 16-3 10-5 13-6 12zm-28-131h1l5 1 4 3 7 6 1 2-3-4-5-4-5-3z"/></g><g fill="#448127"><path d="m496 232 5 4q-2 1-8-5"/><path fill="#34541f" d="m496 232 3 1 2 3-4-2q-3 0-4-3l4 3 4 2-1-1-2-2z"/><path d="m490 231 8 5q0-2-5-5"/><path fill="#34541f" d="m490 231 4 2 3 2 1 1-2-3-3-2 1 1 4 4-2-1-2-2z"/><path d="M492 228s4 2 5 5c0 0-7-3-8-5"/><path fill="#34541f" d="m492 228 3 2 1 1 1 2-4-2-2-1-1-1-1-1 1 1 1 1 6 3-1-2-1-1z"/><path d="m487 231 8 5-5-5"/><path fill="#34541f" d="m487 231 4 3 3 2h1l-2-3-3-2 3 2 2 3h1-2l-1-1-2-1z"/><path d="m487 233 5 3q0-2-5-5"/><path fill="#34541f" d="m487 233 2 1 2 1 1 1-1-2-4-3 3 2 2 3-1-1h-2z"/><path d="M485 226s7 5 8 8l-8-4"/><path fill="#34541f" d="m485 226 5 4 3 3v1l-4-2-3-2h-1 1l1 1 6 3-1-1-1-1-2-2z"/></g><g stroke-width="0"><path fill="#406325" d="M445 370c-5 4-19 6-20 5q17-11 20-5m70 5c5 5 21 8 23 7-10-11-22-12-23-7"/><path fill="#67923d" d="M445 370q-3-6-20 5zm70 5c1-5 13-4 23 7q-20-8-23-7"/></g></svg>