<svg xmlns="http://www.w3.org/2000/svg" xmlns:xlink="http://www.w3.org/1999/xlink" viewBox="0 0 640 320"><path fill="#d3ae3b" d="M0 0h640v320H0z"/><path fill="#c40308" d="M16 16h608v288H16z"/><path fill="#b96b29" d="M390 157q4 0 13-6 6-5 5-8v-2l-7 5-6 2h-1q3 1 8-5t6-11q0-3-1-2l-6 7-7 4c-1 1-4 2-1 0q6-3 11-13 3-9 2-10 0-2-1-1c0 1-4 9-7 12l-3 3h-1l7-11 2-10-2-7-1-1-4 12-4 9q-2 2-1 0c1-2 5-11 5-19l-2-14-2-3-1 13-4 12v-1l2-9-1-14-4-8-4 24h-1l-5 13-4 7-1-2h-1l-7 9q-6 6-6 11t5 6q3 3 2 5l-4 2h-5l-2 3-2 1h-1c0-9 4-13 4-13l-10-11-2 1v-1l-2-5h3v-2l-1-4 1-2 2 2 1-2 2-5 3 1 6-2 2-2 6 1q5 1 7-3 1-5-1-6h-1l-1 4-5 1h-9l5-3q3-1 3 1 1 3 2 0v-5l-5-2h-3q0-2-3-3-6-1-10 2h-4l-4-2 1-3h1l1-1-1-1 2-3 2-1h1l1-1 1-1v-3l1-1v-2l-1-2-1-2-1-1 1-1-2-1h-1l-2-2h-1v-1l-2-1h-1l-4-1h-1l-3-1-1-1 1-2-2-4h-1v-1h2v-3h-2v-2h-4l1 2h-2v3h2v1l-2 1q-2 0-2 3l1 2-1 1-3 1h-2l-4 1-2 1v1h-1l-2 2h-1l-2 1 1 1-1 1-1 2-1 2v2l1 1v3l1 1 1 1h1l2 1q3 2 2 3l-1 1 1 1h1l1 3-4 2h-4q-4-3-10-2l-3 3h-3l-5 2v5q0 2 2 0 0-2 3-1t5 3h-9l-5-1-1-4h-1s-3 3-1 6q2 4 7 3l6-1 2 2q3 3 6 2l3-1 2 5 1 2 2-2 1 2-1 4v2h3l-2 5v1l-2-1-10 11s4 5 4 14v-1h-1l-2-1-2-3h-5l-4-2q0-3 2-5 5-2 5-6 0-5-6-11l-7-9h-1l-1 2-4-7-5-13h-1l-4-24-4 8-1 14 2 9v1l-4-12-1-13-2 3-2 14q1 13 5 19 1 2-1 0l-4-9-4-12-1 1-2 7 2 10 7 11h-1l-3-3c-3-3-7-11-7-12q-1-1-1 1-1 1 2 10 5 10 11 13c3 2 0 1-1 0l-7-4-6-7q-1-1-1 2 1 6 6 11 5 6 8 5h-1l-6-2-7-5v2q0 3 5 8 9 6 13 6l1 1-5-1-11-5q-2-2-1 1 0 4 6 8 9 5 11 4h1l-13-2-1-2-2 1-1-1v-2h-1l-3 1 1 2 1 2h-3v1l1 3h1l2-1v3l-1 1v1l4 4 3 15c0 7 5 11 6 11v3l2 3v5l4 7v1l-1 1-2 2v3l2 3-1 1 2 3 3 1v1l2 2h4v7l2-1 2 1 2 1v-2l1-2 2-1 2-1-3-1-2-2-1-1 1-1v-1l1-2 1-1 2-3 3-2 3-3 4-2 1 2q1 1 5-3l6-3 1 2q1 2 6-5l9-10h1l-1 1-1 3-4 4-1 6 1 3-3 3-1 5-1 1-4 4-5 4v1l3 3h3v1l-1 4q0 3 3 1l4-1-1 1v2l1 2h2l3-1 2-1-1 1v4l2 2h2l3-3 1 4 4 6 4-6 1-4 3 3h2l2-2v-4l-1-1 2 1 3 1h2l1-2v-2l-1-1 4 1q3 1 3-1l-1-4v-1h3l3-3v-1l-5-4-4-4-1-1-1-5-3-3 1-3-1-6-4-4-1-3-1-1h1l9 9q5 8 6 6l2-2 5 3 5 3 1-2 8 3q3 1 5 4 4 3 9 0l20-8 1-3-1-2v-1l-1-2v-3q0-6-6-8v-1l-1-1v-2h1l1 1 1-1v-4h-2l1-1v-1l-4-1v2h-3l-1 3v1h3l-1 2h-3l-6 2-4 5-1 1-1 2-1 2q-2 2-1 6l3 4-1 1-2-1-5-5-1-1h2v-1l-3-2v-1q3-2 1-2l-5-2h-1l1-2v-1l-6-1q-6-3-7-9 1 3 5 5 5 0 3-3l-2-2h1q1 3 8 3l6-1-2-2v-1h8l6-3-5-1q-2-2 0-1h8q3-1 4-5l-4-1-2-1q2 2 9-1 6-4 5-6v-1l-7 1h-4s8 0 12-3c4-2 5-7 5-7l-8 2h-6 1l11-4q6-4 6-8 1-3-1-1l-11 5zm-150 10-2 1-1-2 2-1zm51 30-6 5-5 1v1l1 2-2 1-5 1 1 2 1 1-3 2v1l3 1-2 1-5 2h-12v-3l-2-5-3-3v-4l-2-2-1-2-1-7-5-10-3-13v-1l3 2c4 3 12 3 12 3h-4l-7-1v1q-1 2 5 6 7 3 9 1l-2 1-4 1q1 4 4 5h8l-1 1-4 1 6 3h8q2-1 0 1l-2 2 6 1q8-1 8-3h1l-2 2q-2 3 3 3 4-2 5-5zm44-119-1-1 4 2 1 3v6l-2 1h-2l-1-1q2 0 2-4 1-4-1-6m-11 7v-5l-1-6 4 3 3 5-1 3v2l-1 1h-3l-2-1h-1zm-11-8 4-3-1 6v5l2 2h-1l-2 1h-3l-1-1v-2l-1-3zm-8 12h-3l-1-1v-6l1-3 4-2-1 1-2 6 3 4zm29 21-3 2 2 1-3 3-4 2v1l1 2h1l-4 4-3 2v2l2 2v2l-3 3-3-3v-2l2-2v-2l-3-2-4-4h1l1-2v-1l-4-2-3-3 2-1-3-2-3-3 4-3v-3q6 3 13 2 7 0 13-2v3l4 3q1 1-3 3"/><path fill="#d4af3a" d="M347 159c0-7 4-12 4-12l-9-9q-12 5-22 0-10 5-22 0l-9 9s4 5 4 11l-3 16q-1 6 1 13c2 5 3 9 11 12l14 7 4 4 4-4 14-7c8-3 9-7 11-12q2-7 1-13l-3-16"/><path fill="#b96b29" d="M345 161q0-10 2-12l-7-8q-8 4-20-1-11 5-20 1l-7 8s3 6 2 12l-3 21q2 7 7 12c5 5 8 4 11 6l8 4 2 2 2-2 8-4 11-6q5-5 7-12z"/><path fill="#1d5e91" d="M344 162q0-12 2-13l-6-7q-9 4-20 0-11 4-20 0l-6 7s3 6 2 13l-2 20v1h6l1-1 1-1v-1h2l1-1 1-2 1-3v-2h-1v-5s-4 1-4-2l-1-5h-1l-2-2-1-3h1l2 1-1-1v-5l1 1h1v-1l1-1 1 2v-1h1v9l2 3h1l2-3h2l1-1h-1l-1-1-1-2-2-1-1-2q1-2 1 0t2 1v-2l1-1 2-1h1v-1h7l1 1 2 1 1 1-1 1h-1l1 1v1l1 1-2 1v1l1 2h1v1h-1l-1 1h-1l1 2 2 1h3l3-1 3 1h4q2 0 2-2l-3-1-5-1q-3 0-5-3l2-4 4-1 5-1h3l1 1q0 2-3 2l-5 1-3-1q-2 0-1 3l6 1c1 0 6 0 7 2q1 4-1 5l-4 1-1 1v1l1 2h2l2 2 1 3v3l-1 2-1 3h6v-1z"/><path fill="#6d8c3e" d="M294 186a18 18 0 0 0 8 9c6 4 8 3 13 6l5 4 5-4c5-3 7-2 13-6a18 18 0 0 0 8-9z"/><path fill="#d4af3a" d="m299 158 2 1 1 1 1 4q2 3 3 2v-4l-1-1-2-4 1-4v-1h-1v1l-1-1h-1l1 1h-2v2l1 2zm2-7h-1zm6 16q2 1 3-2 1-1 1 1l1 3h1v-3l1 1 1 2 1-1v-2h1l1 1 1-1v-2h3l-2-3v-1h1l2-1-1-1-2-1h-1v-1h-1l-1 1v1-1l1-1v-2h-2q0 1 0 0h1l1-1q1-1 0 0h1l1-1v-2h-2l-1 1q0 1 0 0v-1l-1-1h-2l-1 1h-3l-1 1v1h1v1q0 1 0 0h2v2l-1 1h-1 3l1 1v1l-1 1h-1l-3 1-2 2h1l3-1v1h1l1-1h1l-1 2 2-1v1l-1 2-1-1v-1h-3v-1l-2 1-1 2z"/><path fill="#d4af3a" d="M318 149h1l1-1zm2 3 1-1h1l-1-1h-2zm0 1-2 1q-1 0 0 0l1 1v1h1l1-1h2l-1-2zm-9 2h-1l-4-2v2zm-6 27h3v-1l1-3 1-4v-1l-1-2h-1v1l-1 3-2 4h-2l-1 1 1 1zm-4 0h2z"/><path fill="#d4af3a" d="M303 182h1v-1zm16-1-1 1h1zm2 1h-1v1z"/><path fill="#d4af3a" d="m328 174 1-1-1-1-1-1-3 1-1 2v1h1l1 1v2l-1 2h-4l1 1v2h4l1-2 1-1 1-2-1-1v-2z"/><path fill="#d4af3a" d="M322 165h-2l-1 2h-2l-1 2h-1q-1-1 0 0l-1-1h-1l-1 1-2-1v-1l-2 1h-2l1 2 1-1h2v2l1 2 1-1 1-2 2 1 1 1 1-2q1-1 0 0l1 1 5-2h5l1-1h-5 1l4-1 1 1v4l3 2h1l1-1 2 1v1l1 1-1 1-1 2h-2l-1 1v2l1-1h2v1h2l2-3v-7l-1-2-3-1-1-4-3-2h-9z"/><path fill="#d4af3a" d="M334 182h2v-1zm-40 1v2h52v-2zm35-25q3 3 9 2 3 2 1 3l-4 2v1l2-1 4-1v-4l-5-1-5-1q-3 0-3-2l2-2h8l3-2h-2l-4-1-4 2q-2-1-4 2-1 2 2 3"/><circle cx="315" cy="151" r="1" fill="#b96b29"/><path fill="#b96b29" d="m336 152-3 1h5z"/><path fill="#1d5e91" d="M324 176h-1l-1-1v-3l-2 1h-3l-1 1-2-1-2 1-1 3-1 4v2h8v-1l1-1 1-1h3l1-1zm13 1-1-1h-1v1h-2l-3-2-1-1-1 1v1l1 2-1 3-1 2h4v-1l1-1 2-1 2-1 1-1z"/><path fill="#d4af3a" d="m304 220 3-1 1-3 1-1-1 2v5q0 3 2 2l2-2 1-2 1-2v2l-1 4 1 4q2 0 2-4l2-3v3l1 4 1 1 1-1 1-4v-3l2 3q0 4 2 4l1-4-1-4q0-3 1 0l1 2 2 2q2 1 2-2l-1-7 1 1 1 3 3 1v-4q-1-4-4-6l-3-5-5 3-4 4-4-4-5-3-3 5-3 2-1 4z"/><path fill="#d4af3a" d="m304 228 1-1h1v5l1 1 2-2h1v4q0 3 2 1l3-4q1-2 1 0-1 6 4 9 5-3 4-9 1-2 1 0l3 4q2 2 2-1v-4h1l2 2 1-1v-5h1l1 1 2 1s1-3-1-5l-2-3h-1l-1-1v2l2 2q1 1 0 0l-2-1-1 2h-2v1l2 3-1-1-2-3h-1v3l-1 1 1 3h-1l-1-3h-2l-1-2-1 2-1 2-1 4v1-1l-1-4-1-2-1-2-1 2h-2l-1 3h-1l1-3v-1l-1-3h-1l-2 3-1 1 2-3v-1h-2l-1-2-2 1q-1 1 0 0l2-2v-2l-1 1h-1l-2 3q-2 4-1 5t2-1m17 22-1-1-1 1-3 3 1 4 3 4 3-4 1-4z"/><path fill="#b96b29" d="M320 254v2zl1-2h-2z"/><path fill="#d4af3a" d="m320 101-11-1h-2q5 3 13 2 8 0 13-2h-2zm14-3-3-2v-1l3-1 1-1-4-1h-22l-4 1 1 1 3 1v1l-3 2h2a63 63 0 0 1 26 0m-5 1h-18l9 1zm-10-36h2v-2h2v-1h-2v-2h-2v2h-2v1h2zm5 3h-3v-3h-2v3h-2l-1 1h8z"/><path fill="#1d5e91" d="m320 70 4-2h-7zm2-6v1h1zm-3 0-2 1h2z"/><path fill="#b96b29" d="m322 93-2-1-2 1-1 1v1l3 2 3-2v-1z"/><path fill="#d4af3a" d="m318 94 2 1 2-1-2-1zm2-9-1 1 1 1 1-1z"/><path fill="#d4af3a" d="m318 86 1-1 1-1v1l2 1 1-2v-7l-1-7-2 1-2-1-1 7v7z"/><circle cx="320" cy="82" r="2" fill="#b96b29"/><circle cx="320" cy="77" r="2" fill="#b96b29"/><circle cx="320" cy="73" r="2" fill="#b96b29"/><circle cx="320" cy="81" r="1" fill="#d4af3a"/><circle cx="320" cy="77" r="1" fill="#d4af3a"/><circle cx="320" cy="73" r="1" fill="#d4af3a"/><path fill="#b96b29" d="M320 224v-3 4q0 1 0 0"/><g id="a"><path fill="#d4af3a" d="m300 239 4-2q3-2 2-3l-1-1v-5l-2 2h-2v-1l-1 2-5 4-4 3v1l4 2q4 1 5-2"/><path fill="#d4af3a" d="M311 238q-2 0-2-2v-3h-1l-1 1v1q-1 2-3 2l-3 2-2 3-3 3 1 2 4-1 7-4z"/><path fill="#d4af3a" d="m317 240-1-2-1-4-1 2-2 2-1 2-4 3-4 4-1 3h2l8-3c3-2 5-7 5-7"/><path fill="#d4af3a" d="m318 248 2-5-1-1-2-1-1 2-3 3-4 4 1 5h2l2-2z"/><path fill="#b96b29" d="m306 217 2-3 1-2-2 2zq-1 2 0 0m5 1 1-1v-1zl-1 3zm5 3v-2q0-1 0 0zv1zm-14 13-1 1-2 1-1 1h1l1-1 2-1zm5 5-2 1-1 1-3 2h1l2-1 1-1zm5 4q1-1 0 0l-3 2-2 1v1l1-1h1l1-1zm3 5-3 3-1 1h1l1-1zl2-2v-1z"/><path fill="#c52126" d="M290 113a15 15 0 0 0-12-1h-4l-3-4s-2 3 0 5l3 2 9-2 5 2h2z"/><path fill="#d4af3a" d="m280 212-1-1h-1l-3 2h4z"/><path fill="#d4af3a" d="m292 211-1-2-1 1-2 3q-2 2-1 0l2-3 1-1h-3l-3-2-2-1-4 2h-1l3 1 3 1 2 1-2 4-1 6 4-3 5-3 1-1z"/><path fill="#d4af3a" d="m304 201-3 3h-1l3-3-5-3-1 1-2 2 1-2 1-2-3-3-3 5c-2 3-7 4-7 4s-2 0-1 1h5l4-1v1l-6 1h-1l3 2h6l-1 3 1 4 1 2q0 1 0 0l2-4v-2q1-1 0 0v5l5-6 1-2 2-2 3-2zm-47-86 4 8 1 3-1-1-3-5-3-6h-1q-2 1-1 7l5 7 1 2-1-1-4-4-3-4q0-1 0 0l-1 3 4 7 3 3-3-2-5-4-1 2q0 6 5 7l2 3-2-1-5-3v3q2 5 5 6l3 2h-2l-4-2-1 1 1 4 6 3h2l-1 1h-4l-2 1 2 3 6 2 1 1h-2l-3 1q-1 1 1 3l6 1h3q1 1-2 1l-3 1q-1 2 1 3l6 1 4-1-3 2-2 1 2 2h5l2-1v1l-3 2-2 1q0 2 4 2l7-1 1-1v1l-3 2-1 1q-1 2 2 3t7-2l2-1v-6h-3l-2-3h-3l-3-2q-2-2-1-3h-2l-4-1-1-3-1-1-2-2-2-2-2-2-2-4 1-2-2-1q-2-1-2-3 1-4 2-3l-1-1q-2 0-3-3l1-2 2-1-1-2v-3l3-1h2v-4l2-2 5 1v-1l-3-4-3-7-3-9-1-1-2 3z"/><path fill="#d4af3a" d="m291 161-4-2q-2-3-6-2-4 0-5-4-1-3 3-6 6-3 5-6t-6-9l-6-9-1 3v2l-2-1q-3-2-5 1-2 4 1 4l2 3-2-1-4-2q-2 0-3 2l3 4 2 1h-4q-3 0-1 3 3 3 4 2l1 1h-2q-2 1-2 3l4 3h2l-1 1-3 1 1 3 4 1h2l-2 2q-2 1 1 3h4l2-1q1 1-2 2-2 2 1 4h5l1-1v3q-2 1 1 4 4 0 5-2h1v1q-1 1 1 3l3 1 1-5v1h-2l1-1h1v-1l1-1zm-49-36 6 8-1-2v-2l-2-4-3-6 3 6 3 3v-1h1l1 1-1-2-1-2-4-7-4-12q0-2-1 0l-1 7q0 5 4 13m3 14 3 2-1-1v-2l-2-2-4-4 2 1 4 4v-1l1-1-2-2-8-9-4-7q-1 1 3 13zm19 38q3-2 2-3-2-1-3 1l-5 1h-1l3-1 4-2q2 0 0 0l-1-1-3 1-9 1-5-1v3q3 3 10 3zm-9-5 5-1v-1l-1-2h-7q-2-1 0 0l6-1q1 0 0 0l-3-2h-8l-7-1h-1l1 3 7 4zm-1-8v-2l-3-1-4-1-3-1 2 1 6 1h3l1-1h-1l-2-1-3-1-8-2-7-3h-1l3 4q0 3 7 5zm-14-12q7 4 10 4v-2h2v-1h-2l-5-2q-4-1-3-2l3 2 6 1h-1l-1-2-4-1-7-3-2-1-3-3h-1l2 4zm-1-8 9 4q1 0 0 0v-2l-3-2-5-3q-1-1 0 0l4 2 4 3 1-1h1l-1-1-3-2-7-4-6-7v3q0 4 6 10m15-32 2 2 1 2v-5l-1-1-1-5v-6q0-2 0 0l1 5 1 6v-1l2-3v-1l-2-11-1-12q-3 4-4 14l1 9zm-4 11 1-3-2-4-1-5v-1q2 9 3 8l1 3v-3l1-5-3-8-2-12-1-3s-2 1-2 9a46 46 0 0 0 5 24m22 59-2-1v-2l-1 1-3 1-2 1 2-1 4-3h-2l-2-1-5 3-8 2 2 3h9zm5 5v-3h-1l-4 3q-3 2 0 0l4-4h-1l-6 3-8 3c0-1 2 3 8 2q9-1 8-4m11-2-1 1-3 1-1 1-2 2-3 1 2-1 2-2v-1h-2l-1 1-2 2-3 3v1l3 1 5-1 3-3zm2 7-1 1 1-2v-1l-1-3-2 5q-3 3-2 4l4-1q3-1 2-3v-1z"/><circle cx="289" cy="106" r="1" fill="#d4af3a"/><path fill="#d4af3a" d="m287 104 3-1 5 2 7 1 2-1q3-3 2-5l-7 3 1 1-2-1-4-2h-6zm31 23-3-2-4-4 1-2 1-1-3-1-4-4v-1l1-1-2-1-3-3h-6l-4-1-1 1-3 1v-3l-3-1h-6l-2 4 1 1 3-2 6 3 4 3q1 2-2 2h-5l3 2h7l3 6 2-2q0-1 0 0l2 5-1 4h1l1-1q1-1 1 1l1 5 3 4 1-2v-11l4 3h6z"/><path fill="#d4af3a" d="m302 134-1 2-1 1 2 1h2l-2-2zm14-1v-1l-6-1 2 3h2l-3-1-2-3v6l-1 3 7-1 3-1v-1z"/><path fill="#b96b29" d="m310 125-1-2v1l3 2 2 1zm-4 8v-6h-1zv1zm-7-21q-1-2 0 0l2 3v2l-1-1-3-1v1l2 2 3 2 1 1-1-6zm-21 66-2 1h1zl1-1zm7 4-2 1h-1v1zm-28-50-1-1q-1 0 0 0zm-2 5v1zh-1zm1 7-1-1-1-1h-1l1 1zm1 6h-1l-1-1 1 1zm1 7h-2 4zm7 7h-4 5m3 5h-3v1zq1 0 0 0m6 4-2 1-1 1h1zm-10-50 1 1q1 2 1 0l-3-3zm-2 6-1-2h-1l1 1zm3 13-2-1h-2l3 1zm-3-7 2 1 1 1-1-1zq-1-1 0 0m7-4-1-1h-1zm-5 17h2zm1 6h1l2-1h1-2l-1 1zm8 4-1 1-1 1h-1 2zm4 5 1-1 1-1-1 1-3 1v1q-1 0 0 0zm6 5 1-2h1-1zv1q-1 0 0 0z"/><path fill="#d4af3a" d="m306 97 2-2-3-1-2 2z"/><circle cx="313" cy="95" r="2" fill="#b96b29"/><circle cx="313" cy="94" r="1" fill="#d4af3a"/><path fill="#d4af3a" d="M308 88h2l-1-2-1-1zm-1 0-1 1h1l1 1 1-1zm1 3-3-2q0 3-2 2l2 1h2zv-1zm-5-2h-3l2 1zm-4-2h-2v1l1 1 2-1z"/><path fill="#d4af3a" d="m300 85 2-6 4-4 1-1 3-2-3 1-2 1h-1l-3 2v1l-1 1h-1v1l-1 2v1l-1 2v1l1 1 2 2z"/><path fill="#d4af3a" d="M306 74v-1h-1v1zm-6 3v1z"/><circle cx="297" cy="82" r="1" fill="#d4af3a"/><path fill="#d4af3a" d="m316 70-3 1 2 1-2 2-2-2h1l-2 1q-3 1-4 5l-2 7q2 3 3 2v-3h1l1 1 1 1v-4l1-5 5-4 1-1z"/><path fill="#d4af3a" d="m313 73-1-1-1 1zm4 16h2v-1a1 1 0 0 0-2 0zm2 1-1 1-2-1-1-1h-1v1h-4 1l2 1h6zm-8-1h1l1-1h-3z"/><circle cx="307" cy="81" r="2" fill="#b96b29"/><path fill="#b96b29" d="m310 75-2 1v2l2-1z"/><circle cx="307" cy="81" r="1" fill="#d4af3a"/><path fill="#d4af3a" d="m309 75 1 1z"/></g><path fill="#d4af3a" d="m282 213-3 1h-1l-4 3-4 2h-11l-5 1q-3 3 0 5 4 2 3 0v-3h5l4 1-1 1-2-1-3-1v1l1 1-1 1 1 1v-2h2l1 2v5l1-1 1-2v-1l1 2h1l1-1 3-3 4-3 4-3 1-2zm-44-49v-2h-1l-1 1q-1 1-1-1v-2h-2l-1 1 1 2v1h-1l-1 1 1 2 2-1q0-1 0 0l1 3h2l1-1-2-3zm15 64v-2l-1-2v-1h-1l-2 2q0 2 3 3zm2-1v2l1 1v-2z"/><path fill="#d4af3a" d="m257 233 2-1h3l1-2-2-2h-1l-1 1-1 1-1 1-1-1h-5l1 2 2 1zm8 1 1-2h-3l-1 1-3 1-2 1h-2l1 1 2 1 1-1 1-1h3zm0-3h1l1-2-1-1zm-2-5-1-2v2l-1 1h1zm-5 2 2-1v-1l-1-1h-1v1l-1 1zm2-4-1-1v-1 1l-1 1zm-12-24 1-4-4-10-5-9-1-6 1-3h-1l-1 2h-3l-2 1 2 1 2 1 2 5 1 8 3 10c0 1 3 5 5 4m3 7-1 6q1 4 3 5l1 1 2-1v-3l-2-5zm1-3-3-2h-1q-2 4 1 4h2zm17 35h-1l-2-2-1-1-3 1 1 1v5l1-1 2-2h3z"/><path fill="#d4af3a" d="M266 241v2h1v1l1-1z"/><path fill="#1d5e91" d="M397 216h-2l-2 1-1 2 1 1 3-1zm2-8q-1-4-5-7l-1 5v2l5 1zm-14-2 1-1 2-6-6 1-4 4 3 1zm-7 6h-1l2 4 4 2q4 0 5-2v-2l-6-1z"/><path fill="#d4af3a" d="m378 210 10 2h2l1-1v-2h2l1 4 3 1h1l1-4-1-1-6-1v-1l1-6-5-2-1 7h-2l-7-1-1 1-1 3z"/><path fill="#d4af3a" d="M400 216h-2l-1 4-5 2q-2 0-2-3l3-3v-3h-2l-2 2-2 3-6 2q-3-1-4-4l-2-6h-2l-1 3 1 3 2 3q2 2 0 3l-3-1-7-5-1-1-6-3 1 5v1l13 7q2 3 6 2l11-3 10-3q3-1 2-3zm-11-21h1l1 1-1 2v1h2v-1l1-2q0-1 0 0h2l1-1-1-1h-2v-1l1-1v-1h-2l-1 2h-2q0-1 0 0zm3 14v3h1v-1zm7 5v-2h-1zm-25-5 1 1 1-2v-1h-1z"/><circle cx="379" cy="207" r="2" fill="#b96b29"/><circle cx="384" cy="209" r="2" fill="#b96b29"/><circle cx="396" cy="211" r="2" fill="#b96b29"/><circle cx="388" cy="210" r="2" fill="#b96b29"/><circle cx="389" cy="206" r="2" fill="#b96b29"/><circle cx="390" cy="202" r="2" fill="#b96b29"/><circle cx="379" cy="207" r="1" fill="#d4af3a"/><circle cx="384" cy="208" r="1" fill="#d4af3a"/><circle cx="397" cy="211" r="1" fill="#d4af3a"/><circle cx="388" cy="209" r="1" fill="#d4af3a"/><circle cx="389" cy="206" r="1" fill="#d4af3a"/><circle cx="390" cy="202" r="1" fill="#d4af3a"/><use xlink:href="#a" width="640" height="320" transform="matrix(-1 0 0 1 640 0)"/></svg>